# xmcd
#
# Track frame offsets: 
#        150
#        18493
#        37378
#
# Disc length: 786 seconds
#
# Revision: 0
# Processed by: cddbd v1.4b42PL1 Copyright (c) Steve Scherf et al.
# Submitted via: ExactAudioCopy v0.90a11
#
DISCID=23031003
DTITLE=Shania Twain - Who's Bed Have Your Boots Been Under (Maxi-Singl
DTITLE=e)
DYEAR=1900
DGENRE=
TTITLE0=Who's Bed Have Your Boots Been Under
TTITLE1=Any Man Of Mine
TTITLE2=Who's Bed Have Your Boots Been Under (dance mix)
EXTD=
EXTT0=
EXTT1=
EXTT2=
PLAYORDER=
